<svg width="17" height="22" viewBox="0 0 17 22" fill="current color" xmlns="http://www.w3.org/2000/svg">
<path id="Vector" d="M11.5959 21.6829L16.1641 17.2821C16.2706 17.1796 16.3551 17.0578 16.4127 16.9237C16.4703 16.7897 16.5 16.6461 16.5 16.501C16.5 16.208 16.3792 15.927 16.1641 15.7199C15.9491 15.5127 15.6574 15.3963 15.3533 15.3963C15.0491 15.3963 14.7575 15.5127 14.5424 15.7199L11.9271 18.2503L11.9271 5.499C11.9271 5.20721 11.8068 4.92737 11.5926 4.72104C11.3785 4.51472 11.088 4.3988 10.7851 4.3988C10.4822 4.3988 10.1917 4.51472 9.97752 4.72104C9.76335 4.92737 9.64302 5.20721 9.64302 5.499L9.64302 20.9018C9.64415 21.119 9.71199 21.331 9.838 21.5112C9.964 21.6913 10.1425 21.8314 10.3511 21.914C10.5591 21.9982 10.7883 22.0213 11.0098 21.9801C11.2314 21.939 11.4353 21.8356 11.5959 21.6829ZM7.35892 16.501L7.35892 1.0982C7.3578 0.880997 7.28996 0.66897 7.16395 0.488845C7.03795 0.30872 6.85941 0.168557 6.65085 0.0860201C6.44287 0.00176747 6.21365 -0.0212517 5.9921 0.0198673C5.77056 0.0609863 5.56662 0.164401 5.40602 0.317062L0.837818 4.71786C0.730775 4.82014 0.645811 4.94182 0.587831 5.07589C0.52985 5.20996 0.5 5.35376 0.5 5.499C0.5 5.64424 0.52985 5.78804 0.587831 5.92211C0.645811 6.05618 0.730775 6.17787 0.837818 6.28014C0.943986 6.38326 1.0703 6.46511 1.20947 6.52097C1.34864 6.57682 1.49791 6.60558 1.64867 6.60558C1.79944 6.60558 1.94871 6.57682 2.08788 6.52097C2.22705 6.46511 2.35336 6.38326 2.45953 6.28014L5.07482 3.74968L5.07482 16.501C5.07482 16.7928 5.19514 17.0726 5.40932 17.279C5.6235 17.4853 5.91398 17.6012 6.21687 17.6012C6.51976 17.6012 6.81025 17.4853 7.02442 17.279C7.2386 17.0726 7.35892 16.7928 7.35892 16.501Z" fill="current color"/>
</svg>
