<svg width="34" height="33" viewBox="0 0 34 33" fill="none" xmlns="http://www.w3.org/2000/svg">
<circle cx="17.25" cy="16.5" r="16.5" fill="#343434"/>
<path d="M17.3648 7.33334V14.0818C17.3648 14.1104 17.3362 14.1391 17.3075 14.1391C17.107 14.2267 16.9351 14.3134 16.7346 14.4002C16.4768 14.5156 16.1903 14.6318 15.9325 14.7767L14.9871 15.2105L14.2137 15.5583L13.2683 15.993C13.0105 16.1092 12.7526 16.2246 12.4662 16.3695C12.2656 16.4562 12.0365 16.5724 11.8359 16.6592C11.8073 16.6592 11.8073 16.6879 11.7786 16.6592H11.75C11.8359 16.5143 11.9219 16.3981 12.0078 16.2541C12.4662 15.4716 12.9532 14.6899 13.4115 13.9074C13.8985 13.0685 14.4142 12.2279 14.9012 11.3881C15.3595 10.6065 15.8179 9.82482 16.2762 9.07181C16.62 8.49151 16.9638 7.9423 17.2789 7.36199C17.3362 7.36199 17.3362 7.33334 17.3648 7.33334C17.3648 7.33334 17.3362 7.33334 17.3648 7.33334Z" fill="#FDFDFF"/>
<path d="M22.9224 16.6592C22.4927 16.949 22.0343 17.2092 21.6046 17.4695C20.2009 18.3101 18.8258 19.1212 17.4221 19.961C17.3935 19.961 17.3935 19.9897 17.3648 19.9897C17.3362 19.9897 17.3362 19.961 17.3362 19.961V14.1391C17.3362 14.1104 17.3648 14.1104 17.3935 14.1104C17.5081 14.1677 17.6227 14.2267 17.7659 14.284C18.1097 14.4583 18.4821 14.6032 18.8258 14.7767C19.1409 14.9216 19.4274 15.0664 19.7425 15.1818C20.0577 15.3267 20.3441 15.4716 20.6592 15.6165C20.9171 15.7327 21.2035 15.8481 21.4614 15.993C21.7192 16.1092 22.0057 16.2246 22.2635 16.3695C22.464 16.4562 22.6645 16.5725 22.8937 16.6592C22.8937 16.6306 22.8937 16.6592 22.9224 16.6592Z" fill="#FDFDFF"/>
<path d="M17.3648 25.6667C17.3361 25.6667 17.3648 25.6667 17.3648 25.6667C17.3361 25.6667 17.3361 25.6667 17.3075 25.6372C16.7345 24.8269 16.1902 24.0444 15.6173 23.2333L13.8985 20.8008C13.3542 20.0191 12.7812 19.2374 12.2369 18.4255L11.8072 17.8174C11.8072 17.7887 11.7786 17.7887 11.7786 17.7601C11.8072 17.7601 11.8072 17.7887 11.8359 17.7887C12.6093 18.252 13.4115 18.7152 14.1849 19.1785C15.073 19.7294 15.9897 20.2507 16.8778 20.8008C17.021 20.8875 17.1929 20.9743 17.3361 21.061C17.3648 21.061 17.3648 21.0905 17.3648 21.1191V25.6667Z" fill="#FDFDFF"/>
<path d="M11.75 16.3561C11.75 16.3274 11.75 16.3274 11.75 16.3561C12.0365 16.2112 12.3229 16.0958 12.6094 15.9509L13.7267 15.4295C14.0131 15.2847 14.2996 15.1693 14.5861 15.0244C14.9871 14.8214 15.4168 14.6479 15.8179 14.4449C16.1044 14.3287 16.3908 14.1838 16.6773 14.0684C16.8778 13.9816 17.0784 13.8949 17.2789 13.7786C17.3075 13.7786 17.3075 13.75 17.3362 13.75V19.6579C17.3075 19.6873 17.3075 19.6579 17.2789 19.6579C17.193 19.6006 17.107 19.5711 17.0497 19.513L11.8073 16.3855C11.7786 16.3561 11.75 16.3561 11.75 16.3561ZM22.8364 17.4283C22.8364 17.4569 22.8364 17.4569 22.8078 17.4856C21.1463 19.8608 19.4847 22.2066 17.8232 24.5819C17.6513 24.8422 17.4794 25.0738 17.3075 25.3349V20.7293C17.68 20.4976 18.0524 20.266 18.4248 20.0638L22.8078 17.4569C22.8078 17.4283 22.8364 17.4283 22.8364 17.4283Z" fill="#D2D0D0"/>
<path d="M17.365 14.1104V7.36362L22.8652 16.5733C22.8939 16.6019 22.9225 16.6305 22.9225 16.66C22.8079 16.6027 22.6934 16.5438 22.5501 16.4865C22.4069 16.4284 22.2636 16.3416 22.1204 16.2835C22.0345 16.2549 21.9485 16.1968 21.8339 16.1673C21.6907 16.11 21.5188 16.0224 21.3756 15.9651C21.2896 15.9357 21.2037 15.8784 21.1178 15.8489L20.5162 15.5886C20.4016 15.5305 20.3156 15.5019 20.2011 15.4437C20.0578 15.3856 19.9146 15.2989 19.7713 15.2408C19.6854 15.2121 19.5995 15.154 19.5135 15.1253L18.9119 14.8643C18.7973 14.807 18.7114 14.7775 18.5968 14.7194C18.4536 14.6621 18.3103 14.5745 18.1671 14.5164C18.0812 14.4591 17.9666 14.4296 17.8806 14.3723L17.365 14.1112V14.1104Z" fill="#D2D0D0"/>
</svg>
