<svg width="60" height="61" viewBox="0 0 60 61" fill="none" xmlns="http://www.w3.org/2000/svg">
<path opacity="0.84" fill-rule="evenodd" clip-rule="evenodd" d="M0 30.5V37.5C0 50.2025 10.2975 60.5 23 60.5H30H37C49.7025 60.5 60 50.2025 60 37.5V30.5V23.5C60 10.7975 49.7025 0.5 37 0.5H30H23C10.2975 0.5 0 10.7975 0 23.5V30.5Z" fill="#4AD991"/>
<path d="M19.1111 41.3889H42.4444C43.3036 41.3889 44 42.0853 44 42.9444C44 43.8036 43.3036 44.5 42.4444 44.5H17.5556C16.6964 44.5 16 43.8036 16 42.9444V18.0556C16 17.1964 16.6964 16.5 17.5556 16.5C18.4147 16.5 19.1111 17.1964 19.1111 18.0556V41.3889Z" fill="white"/>
<path opacity="0.759394" d="M24.9126 34.675C24.325 35.3017 23.3406 35.3335 22.7138 34.7459C22.0871 34.1583 22.0553 33.1739 22.6429 32.5472L28.4762 26.3249C29.0445 25.7188 29.9888 25.6662 30.6208 26.2056L35.2248 30.1343L41.2235 22.5361C41.7558 21.8618 42.734 21.7467 43.4083 22.279C44.0826 22.8114 44.1977 23.7895 43.6653 24.4638L36.6653 33.3305C36.1186 34.0231 35.1059 34.1227 34.4347 33.5499L29.7306 29.5358L24.9126 34.675Z" fill="white"/>
</svg>
