<svg width="36" height="35" viewBox="0 0 36 35" fill="none" xmlns="http://www.w3.org/2000/svg">
<path opacity="0.84" fill-rule="evenodd" clip-rule="evenodd" d="M35.5 17.5C35.5 27.165 27.665 35 18 35C8.33502 35 0.5 27.165 0.5 17.5C0.5 7.83502 8.33502 0 18 0C27.665 0 35.5 7.83502 35.5 17.5Z" fill="#FF4C4C"/>
<path d="M8.45581 15.1628V13.1163C8.45581 12.5736 8.67142 12.053 9.05521 11.6692C9.43901 11.2854 9.95954 11.0698 10.5023 11.0698H12.5488M8.45581 15.1628C9.8198 15.1628 12.5488 14.3442 12.5488 11.0698M8.45581 15.1628V19.2558M12.5488 11.0698H22.7812M8.45581 19.2558V21.3023C8.45581 21.845 8.67142 22.3656 9.05521 22.7494C9.43901 23.1332 9.95954 23.3488 10.5023 23.3488H12.5488M8.45581 19.2558C9.8198 19.2558 12.5488 20.0744 12.5488 23.3488M26.8742 15.1628V13.1163C26.8742 12.5736 26.6586 12.053 26.2748 11.6692C25.891 11.2854 25.3705 11.0698 24.8277 11.0698H22.7812M26.8742 15.1628C25.5102 15.1628 22.7812 14.3442 22.7812 11.0698M26.8742 15.1628V19.2558M12.5488 23.3488H16.6418" stroke="white" stroke-linecap="round" stroke-linejoin="round"/>
<path d="M17.665 19.2556C18.7953 19.2556 19.7115 18.3393 19.7115 17.2091C19.7115 16.0788 18.7953 15.1626 17.665 15.1626C16.5348 15.1626 15.6185 16.0788 15.6185 17.2091C15.6185 18.3393 16.5348 19.2556 17.665 19.2556Z" stroke="white" stroke-linecap="round" stroke-linejoin="round"/>
<path d="M20.7347 23.3486H26.8742" stroke="white" stroke-opacity="0.69" stroke-linecap="round" stroke-linejoin="round"/>
</svg>
