<svg width="35" height="36" viewBox="0 0 35 36" fill="none" xmlns="http://www.w3.org/2000/svg">
<g id="Group 3">
<g id="Vector" filter="url(#filter0_d_13_238)">
<path d="M6.50008 10.5C6.76097 10.5 6.97473 10.3082 7.01097 10.0367C7.36966 7.61853 7.69939 7.28188 10.0255 7.01764C10.2936 6.98507 10.5002 6.76063 10.5002 6.49998C10.5002 6.23574 10.2973 6.01855 10.0292 5.97873C7.71751 5.65656 7.43126 5.37421 7.01097 2.95973C6.96385 2.69186 6.75733 2.5 6.50008 2.5C6.23558 2.5 6.02544 2.69186 5.98196 2.96335C5.6305 5.37783 5.30078 5.71448 2.97827 5.97873C2.7029 6.01493 2.5 6.23214 2.5 6.49998C2.5 6.76063 2.69566 6.97783 2.97103 7.01764C5.28629 7.34704 5.5689 7.62577 5.98196 10.0403C6.0363 10.3118 6.24645 10.5 6.50008 10.5Z" fill="url(#paint0_linear_13_238)"/>
<path d="M6.50008 10.5C6.76097 10.5 6.97473 10.3082 7.01097 10.0367C7.36966 7.61853 7.69939 7.28188 10.0255 7.01764C10.2936 6.98507 10.5002 6.76063 10.5002 6.49998C10.5002 6.23574 10.2973 6.01855 10.0292 5.97873C7.71751 5.65656 7.43126 5.37421 7.01097 2.95973C6.96385 2.69186 6.75733 2.5 6.50008 2.5C6.23558 2.5 6.02544 2.69186 5.98196 2.96335C5.6305 5.37783 5.30078 5.71448 2.97827 5.97873C2.7029 6.01493 2.5 6.23214 2.5 6.49998C2.5 6.76063 2.69566 6.97783 2.97103 7.01764C5.28629 7.34704 5.5689 7.62577 5.98196 10.0403C6.0363 10.3118 6.24645 10.5 6.50008 10.5Z" stroke="url(#paint1_linear_13_238)" stroke-width="0.181901"/>
</g>
<g id="Vector_2" filter="url(#filter1_d_13_238)">
<path d="M18.5003 30.6856C19.283 30.6856 19.9242 30.11 20.033 29.2956C21.109 22.0411 22.0982 21.0312 29.0766 20.2385C29.881 20.1408 30.5006 19.4674 30.5006 18.6855C30.5006 17.8928 29.8919 17.2412 29.0875 17.1217C22.1526 16.1552 21.2938 15.3082 20.033 8.06473C19.8916 7.26112 19.272 6.68555 18.5003 6.68555C17.7068 6.68555 17.0763 7.26112 16.9459 8.07559C15.8915 15.319 14.9024 16.329 7.93481 17.1217C7.10871 17.2303 6.5 17.882 6.5 18.6855C6.5 19.4674 7.08697 20.1191 7.91308 20.2385C14.8589 21.2267 15.7067 22.0629 16.9459 29.3064C17.109 30.1208 17.7394 30.6856 18.5003 30.6856Z" fill="url(#paint2_linear_13_238)"/>
<path d="M18.5003 30.6856C19.283 30.6856 19.9242 30.11 20.033 29.2956C21.109 22.0411 22.0982 21.0312 29.0766 20.2385C29.881 20.1408 30.5006 19.4674 30.5006 18.6855C30.5006 17.8928 29.8919 17.2412 29.0875 17.1217C22.1526 16.1552 21.2938 15.3082 20.033 8.06473C19.8916 7.26112 19.272 6.68555 18.5003 6.68555C17.7068 6.68555 17.0763 7.26112 16.9459 8.07559C15.8915 15.319 14.9024 16.329 7.93481 17.1217C7.10871 17.2303 6.5 17.882 6.5 18.6855C6.5 19.4674 7.08697 20.1191 7.91308 20.2385C14.8589 21.2267 15.7067 22.0629 16.9459 29.3064C17.109 30.1208 17.7394 30.6856 18.5003 30.6856Z" stroke="url(#paint3_linear_13_238)" stroke-width="0.545704"/>
</g>
<g id="Vector_3" filter="url(#filter2_d_13_238)">
<path d="M6.50008 33.5C6.76097 33.5 6.97473 33.3082 7.01097 33.0367C7.36966 30.6185 7.69939 30.2819 10.0255 30.0176C10.2936 29.9851 10.5002 29.7606 10.5002 29.5C10.5002 29.2357 10.2973 29.0186 10.0292 28.9787C7.71751 28.6566 7.43126 28.3742 7.01097 25.9597C6.96385 25.6919 6.75733 25.5 6.50008 25.5C6.23558 25.5 6.02544 25.6919 5.98196 25.9633C5.6305 28.3778 5.30078 28.7145 2.97827 28.9787C2.7029 29.0149 2.5 29.2321 2.5 29.5C2.5 29.7606 2.69566 29.9778 2.97103 30.0176C5.28629 30.347 5.5689 30.6258 5.98196 33.0403C6.0363 33.3118 6.24645 33.5 6.50008 33.5Z" fill="url(#paint4_linear_13_238)"/>
<path d="M6.50008 33.5C6.76097 33.5 6.97473 33.3082 7.01097 33.0367C7.36966 30.6185 7.69939 30.2819 10.0255 30.0176C10.2936 29.9851 10.5002 29.7606 10.5002 29.5C10.5002 29.2357 10.2973 29.0186 10.0292 28.9787C7.71751 28.6566 7.43126 28.3742 7.01097 25.9597C6.96385 25.6919 6.75733 25.5 6.50008 25.5C6.23558 25.5 6.02544 25.6919 5.98196 25.9633C5.6305 28.3778 5.30078 28.7145 2.97827 28.9787C2.7029 29.0149 2.5 29.2321 2.5 29.5C2.5 29.7606 2.69566 29.9778 2.97103 30.0176C5.28629 30.347 5.5689 30.6258 5.98196 33.0403C6.0363 33.3118 6.24645 33.5 6.50008 33.5Z" stroke="url(#paint5_linear_13_238)" stroke-width="0.181901"/>
</g>
</g>
<defs>
<filter id="filter0_d_13_238" x="0.40918" y="0.409058" width="12.1821" height="12.1819" filterUnits="userSpaceOnUse" color-interpolation-filters="sRGB">
<feFlood flood-opacity="0" result="BackgroundImageFix"/>
<feColorMatrix in="SourceAlpha" type="matrix" values="0 0 0 0 0 0 0 0 0 0 0 0 0 0 0 0 0 0 127 0" result="hardAlpha"/>
<feOffset/>
<feGaussianBlur stdDeviation="1"/>
<feComposite in2="hardAlpha" operator="out"/>
<feColorMatrix type="matrix" values="0 0 0 0 0.0392157 0 0 0 0 0.486275 0 0 0 0 1 0 0 0 0.8 0"/>
<feBlend mode="normal" in2="BackgroundImageFix" result="effect1_dropShadow_13_238"/>
<feBlend mode="normal" in="SourceGraphic" in2="effect1_dropShadow_13_238" result="shape"/>
</filter>
<filter id="filter1_d_13_238" x="2.22705" y="2.41272" width="32.5464" height="32.5457" filterUnits="userSpaceOnUse" color-interpolation-filters="sRGB">
<feFlood flood-opacity="0" result="BackgroundImageFix"/>
<feColorMatrix in="SourceAlpha" type="matrix" values="0 0 0 0 0 0 0 0 0 0 0 0 0 0 0 0 0 0 127 0" result="hardAlpha"/>
<feOffset/>
<feGaussianBlur stdDeviation="2"/>
<feComposite in2="hardAlpha" operator="out"/>
<feColorMatrix type="matrix" values="0 0 0 0 0.0392157 0 0 0 0 0.486275 0 0 0 0 1 0 0 0 0.8 0"/>
<feBlend mode="normal" in2="BackgroundImageFix" result="effect1_dropShadow_13_238"/>
<feBlend mode="normal" in="SourceGraphic" in2="effect1_dropShadow_13_238" result="shape"/>
</filter>
<filter id="filter2_d_13_238" x="0.40918" y="23.4091" width="12.1821" height="12.1819" filterUnits="userSpaceOnUse" color-interpolation-filters="sRGB">
<feFlood flood-opacity="0" result="BackgroundImageFix"/>
<feColorMatrix in="SourceAlpha" type="matrix" values="0 0 0 0 0 0 0 0 0 0 0 0 0 0 0 0 0 0 127 0" result="hardAlpha"/>
<feOffset/>
<feGaussianBlur stdDeviation="1"/>
<feComposite in2="hardAlpha" operator="out"/>
<feColorMatrix type="matrix" values="0 0 0 0 0.0392157 0 0 0 0 0.486275 0 0 0 0 1 0 0 0 0.8 0"/>
<feBlend mode="normal" in2="BackgroundImageFix" result="effect1_dropShadow_13_238"/>
<feBlend mode="normal" in="SourceGraphic" in2="effect1_dropShadow_13_238" result="shape"/>
</filter>
<linearGradient id="paint0_linear_13_238" x1="6.50008" y1="2.5" x2="6.50008" y2="10.5" gradientUnits="userSpaceOnUse">
<stop offset="0.404167" stop-color="#0A7CFF"/>
<stop offset="1" stop-color="white"/>
</linearGradient>
<linearGradient id="paint1_linear_13_238" x1="3.7733" y1="1.77057" x2="9.95795" y2="9.7742" gradientUnits="userSpaceOnUse">
<stop/>
<stop offset="0.0001" stop-color="#0A7CFF"/>
<stop offset="1" stop-color="white"/>
</linearGradient>
<linearGradient id="paint2_linear_13_238" x1="18.5003" y1="6.68555" x2="18.5003" y2="30.6856" gradientUnits="userSpaceOnUse">
<stop offset="0.445833" stop-color="#0A7CFF"/>
<stop offset="1" stop-color="white"/>
</linearGradient>
<linearGradient id="paint3_linear_13_238" x1="10.3199" y1="4.49725" x2="28.8739" y2="28.5082" gradientUnits="userSpaceOnUse">
<stop/>
<stop offset="0.0001" stop-color="#0A7CFF"/>
<stop offset="1" stop-color="white"/>
</linearGradient>
<linearGradient id="paint4_linear_13_238" x1="6.50008" y1="25.5" x2="6.50008" y2="33.5" gradientUnits="userSpaceOnUse">
<stop offset="0.404167" stop-color="#0A7CFF"/>
<stop offset="1" stop-color="white"/>
</linearGradient>
<linearGradient id="paint5_linear_13_238" x1="3.7733" y1="24.7706" x2="9.95795" y2="32.7742" gradientUnits="userSpaceOnUse">
<stop/>
<stop offset="0.0001" stop-color="#0A7CFF"/>
<stop offset="1" stop-color="white"/>
</linearGradient>
</defs>
</svg>
