<svg width="13" height="11" viewBox="0 0 13 11" fill="none" xmlns="http://www.w3.org/2000/svg">
<g id="Layer 2">
<g id="Layer 1">
<g id="Layer_1">
<path id="Vector" fill-rule="evenodd" clip-rule="evenodd" d="M2.97877 0.715993L0.951959 4.97244C0.943855 4.98786 0.941063 5.00553 0.944018 5.0227C0.946973 5.03986 0.955508 5.05558 0.968302 5.06741L6.43952 10.3127C6.45527 10.3269 6.47571 10.3348 6.4969 10.3348C6.51809 10.3348 6.53854 10.3269 6.55428 10.3127L12.0288 5.06741C12.0414 5.0555 12.0499 5.03979 12.0528 5.02266C12.0558 5.00552 12.0531 4.9879 12.0451 4.97244L10.0183 0.715993C10.0129 0.701188 10.003 0.68846 9.98996 0.679624C9.97692 0.670788 9.96142 0.666295 9.94567 0.666784H3.05067C3.03514 0.667209 3.02004 0.672068 3.00717 0.680786C2.99431 0.689504 2.9842 0.70172 2.97804 0.715993H2.97877Z" fill="white"/>
<path id="Vector_2" fill-rule="evenodd" clip-rule="evenodd" d="M7.20298 5.40796C7.16376 5.41122 6.96075 5.4243 6.50879 5.4243C6.14872 5.4243 5.89324 5.41449 5.80154 5.40796C4.41008 5.34586 3.37216 5.10344 3.37216 4.81528C3.37216 4.52711 4.41008 4.28161 5.80154 4.21951V5.16573C5.89233 5.17226 6.15199 5.18861 6.51206 5.18861C6.94423 5.18861 7.16031 5.16899 7.19971 5.16573V4.21951C8.5879 4.28161 9.62582 4.52402 9.62582 4.81201C9.62582 5.09999 8.5908 5.34586 7.20298 5.40796ZM7.20298 4.12454V3.27638H9.14136V1.98315H3.86334V3.27638H5.80154V4.12454C4.22668 4.19717 3.0415 4.5075 3.0415 4.88409C3.0415 5.26069 4.22668 5.56847 5.80154 5.64365V8.3581H7.20298V5.64365C8.77456 5.57102 9.95666 5.26051 9.95666 4.88736C9.95666 4.51421 8.77456 4.19645 7.20298 4.12472V4.12454Z" fill="#50AF95"/>
</g>
</g>
</g>
</svg>
