<svg xmlns="http://www.w3.org/2000/svg" xmlns:xlink="http://www.w3.org/1999/xlink" viewBox="0 0 1080 1080"><defs><style>.cls-1{fill:#0a086a;}.cls-2{fill:url(#Degradado_sin_nombre_46);}.cls-3{fill:url(#linear-gradient);}.cls-4{fill:#717171;}.cls-5{fill:url(#linear-gradient-2);}.cls-6{fill:url(#linear-gradient-3);}.cls-7{fill:url(#Degradado_sin_nombre_61);}.cls-8{fill:url(#linear-gradient-4);}.cls-9{fill:url(#linear-gradient-5);}.cls-10{fill:url(#linear-gradient-6);}.cls-11{fill:url(#Degradado_sin_nombre_6);}.cls-12{fill:url(#Degradado_sin_nombre_43);}.cls-13{fill:url(#Degradado_sin_nombre_43-2);}.cls-14{fill:url(#Degradado_sin_nombre_43-3);}</style><linearGradient id="Degradado_sin_nombre_46" x1="-503.19" y1="-13.24" x2="-147.52" y2="-13.23" gradientTransform="matrix(0.76, -0.12, 0.16, 0.98, 549.81, 575.9)" gradientUnits="userSpaceOnUse"><stop offset="0" stop-color="#9e9e9e"/><stop offset="0.23" stop-color="#989898"/><stop offset="0.41" stop-color="#e4e4e4"/><stop offset="0.59" stop-color="#c6c6c6"/><stop offset="0.77" stop-color="#fff"/><stop offset="0.91" stop-color="#cfcfcf"/></linearGradient><linearGradient id="linear-gradient" x1="228.72" y1="582.58" x2="527.33" y2="582.58" gradientUnits="userSpaceOnUse"><stop offset="0" stop-color="#9e9e9e"/><stop offset="0.23" stop-color="#989898"/><stop offset="0.41" stop-color="#e4e4e4"/><stop offset="0.59" stop-color="#c6c6c6"/><stop offset="0.77" stop-color="#fff"/><stop offset="1" stop-color="#cfcfcf"/><stop offset="1" stop-color="#eee"/></linearGradient><linearGradient id="linear-gradient-2" x1="123.84" y1="1214.76" x2="159.87" y2="1214.76" gradientTransform="translate(548.98 -942.33) rotate(16.02)" xlink:href="#linear-gradient"/><linearGradient id="linear-gradient-3" x1="2202.58" y1="639.75" x2="2258.48" y2="639.75" gradientTransform="matrix(-1, 0, 0, 1, 2836.34, 0)" gradientUnits="userSpaceOnUse"><stop offset="0" stop-color="#bbb"/><stop offset="0" stop-color="#fff"/><stop offset="0.14" stop-color="#717171"/><stop offset="0.33" stop-color="#494949"/><stop offset="0.77" stop-color="#fff"/><stop offset="1" stop-color="#ebebeb"/></linearGradient><linearGradient id="Degradado_sin_nombre_61" x1="413.62" y1="508.46" x2="701.63" y2="508.46" gradientUnits="userSpaceOnUse"><stop offset="0" stop-color="#bbb"/><stop offset="0" stop-color="#fff"/><stop offset="0.14" stop-color="#717171"/><stop offset="0.45" stop-color="#494949"/><stop offset="0.53" stop-color="#5c5c5c"/><stop offset="1" stop-color="#fff"/><stop offset="1" stop-color="#ebebeb"/></linearGradient><linearGradient id="linear-gradient-4" x1="648.71" y1="467.56" x2="648.71" y2="624.17" gradientTransform="matrix(1, 0, 0, 1, 0, 0)" xlink:href="#linear-gradient-3"/><linearGradient id="linear-gradient-5" x1="539.26" y1="467.56" x2="539.26" y2="618.7" gradientTransform="matrix(1, 0, 0, 1, 0, 0)" xlink:href="#linear-gradient-3"/><linearGradient id="linear-gradient-6" x1="758.17" y1="472.03" x2="758.17" y2="717.97" gradientTransform="matrix(1, 0, 0, 1, 0, 0)" xlink:href="#linear-gradient-3"/><linearGradient id="Degradado_sin_nombre_6" x1="549.4" y1="653.74" x2="718.45" y2="653.74" gradientUnits="userSpaceOnUse"><stop offset="0" stop-color="#bbb"/><stop offset="0" stop-color="#fff"/><stop offset="0.14" stop-color="#717171"/><stop offset="0.33" stop-color="#494949"/><stop offset="1" stop-color="#fff"/><stop offset="1" stop-color="#ebebeb"/></linearGradient><linearGradient id="Degradado_sin_nombre_43" x1="371.02" y1="510.5" x2="727.86" y2="510.5" gradientUnits="userSpaceOnUse"><stop offset="0" stop-color="#0a086a"/><stop offset="0.47" stop-color="#10238c"/><stop offset="0.93" stop-color="#0538f3"/></linearGradient><linearGradient id="Degradado_sin_nombre_43-2" x1="485.5" y1="566.83" x2="811.93" y2="566.83" xlink:href="#Degradado_sin_nombre_43"/><linearGradient id="Degradado_sin_nombre_43-3" x1="547.2" y1="654.03" x2="722.7" y2="654.03" xlink:href="#Degradado_sin_nombre_43"/></defs><title>Dinnermax Logo</title><g id="Logo"><path class="cls-1" d="M411.76,249.31,385,191.48,405.5,182q30.81-14.25,43.85,13.94,6.24,13.5,1.57,25.46t-18.67,18.43Zm-8.82-53.25,17,36.66,6.45-3q8.47-3.92,10.94-11.23t-1.58-16.06q-3.82-8.26-10.79-10.8t-15.6,1.47Z"/><path class="cls-1" d="M461.83,172.08a8.18,8.18,0,0,1-6.18-.33,6.83,6.83,0,0,1-3.66-4.31,6.56,6.56,0,0,1,.68-5.59,9.52,9.52,0,0,1,11.16-3.37,6.62,6.62,0,0,1,3.64,4.29,6.76,6.76,0,0,1-.63,5.67A8.36,8.36,0,0,1,461.83,172.08Zm21.87,48.45-13.44,4.06L457.11,181,470.55,177Z"/><path class="cls-1" d="M536.51,209.88l-13.79,2.38-4.31-24.91q-1.8-10.42-9.24-9.13a7.47,7.47,0,0,0-5.44,3.78,10.63,10.63,0,0,0-1.11,7.4L507.05,215l-13.84,2.4-7.76-44.84,13.84-2.39,1.23,7.09.17,0a16.1,16.1,0,0,1,13-10.68q14.88-2.57,18.08,15.9Z"/><path class="cls-1" d="M588.93,208.65l-14,.23-.41-25.28q-.16-10.57-7.72-10.45a7.48,7.48,0,0,0-6,2.89,10.71,10.71,0,0,0-2.24,7.15l.42,25.94-14,.23-.74-45.49,14-.23.11,7.2h.18a16.09,16.09,0,0,1,14.48-8.54q15.1-.24,15.41,18.5Z"/><path class="cls-1" d="M641.05,197.16l-29.36-4.35q-.75,9.91,10.9,11.63a24.29,24.29,0,0,0,13.57-1.58l-1.48,10q-6.73,2.42-16.72.94-10.89-1.62-16-8.55t-3.53-17.75q1.67-11.21,9.14-16.79a21.87,21.87,0,0,1,17-4.18q9.84,1.45,14.36,8.1t3,16.67Zm-11.61-10.43q1.42-9.67-6.4-10.83a7.54,7.54,0,0,0-6.19,1.91,12.69,12.69,0,0,0-4,6.46Z"/><path class="cls-1" d="M681.92,194.15a12.22,12.22,0,0,0-5.32-2.93,8.49,8.49,0,0,0-7.79,1.28q-3.4,2.52-5,8.08l-5.91,20.91-13.51-3.82,12.38-43.78,13.51,3.82-2.3,8.12.17,0q5.73-8,14.06-5.63a9.07,9.07,0,0,1,3.19,1.46Z"/><path d="M743.49,258.32,730.79,252l17-34.13q2.76-5.53,6.55-12l-.32-.16a68.44,68.44,0,0,1-5.54,6.67l-32.66,32.15-10.5-5.22,5.48-45.16a82.23,82.23,0,0,1,2.16-8.85l-.36-.18q-3.68,8.7-6.84,15.06l-15.68,31.55L678.47,226,706.83,169l18.82,9.35-5.15,39.62a52.74,52.74,0,0,1-2,9.16l.24.12a92.23,92.23,0,0,1,6.37-7.11l28.42-27.94,18.35,9.11Z"/><path d="M780.89,288.62l-10.46-8.19,4-5.14-.14-.11a14.85,14.85,0,0,1-15.38-2.35q-5.21-4.08-5.88-9.38a13.44,13.44,0,0,1,3.19-10.23q8.16-10.42,21.77-2.36l10.74,6.33q4.61-5.88-1.76-10.86a27.55,27.55,0,0,0-15.16-5.73l6.52-8.32a34.55,34.55,0,0,1,8,2.85,42.19,42.19,0,0,1,8,4.8q15.31,12,3.34,27.29Zm1-22.69,1.89-2.41-7.17-4.26q-5.93-3.52-9.19.64a5.1,5.1,0,0,0-1.12,4.12,6.45,6.45,0,0,0,2.61,4,8.29,8.29,0,0,0,6.75,1.83A10,10,0,0,0,781.91,265.93Z"/><path d="M850.72,295.22l-26.33,4.26-6.76,27L806.5,314.71l4.38-13.21c.35-1.06.91-2.47,1.69-4.23l-.12-.12a29.62,29.62,0,0,1-4.16,1.42l-13.55,3.72-11.09-11.71,27-4.42L817.32,260l11.18,11.8-4.79,13.48a27.56,27.56,0,0,1-1.85,4.26l.13.13a30.15,30.15,0,0,1,4.47-1.61l13.75-3.9Z"/><path d="M836.85,334.57,815,342.91l-6.59-8.72,20.68-9.94Z"/><path class="cls-1" d="M848.07,366.8l12.75-6.3a27.26,27.26,0,0,0-.64,9.69,26.82,26.82,0,0,0,2.59,8.92,20.17,20.17,0,0,0,2.54,4,11.29,11.29,0,0,0,2.71,2.43,5.94,5.94,0,0,0,2.73.91,5.05,5.05,0,0,0,2.58-.54,5.5,5.5,0,0,0,2.52-2.43A11.53,11.53,0,0,0,877,379.7a30,30,0,0,0,.21-5c-.05-1.86-.16-3.84-.3-6q-.52-8.07,1.88-13.34a16.59,16.59,0,0,1,8.1-8.09,17.27,17.27,0,0,1,8.56-2,17.07,17.07,0,0,1,7.69,2.27,24.4,24.4,0,0,1,6.57,5.65,41.2,41.2,0,0,1,5.23,8.13,56.76,56.76,0,0,1,3.36,8.17,34.87,34.87,0,0,1,1.49,7.17l-11.91,5.88a20.93,20.93,0,0,0,.2-4,27.07,27.07,0,0,0-.46-4.11,29,29,0,0,0-1-3.93,26.55,26.55,0,0,0-1.42-3.48,19.59,19.59,0,0,0-2.38-3.78,11.53,11.53,0,0,0-2.67-2.45,6.5,6.5,0,0,0-2.76-1,4.73,4.73,0,0,0-2.7.49,5,5,0,0,0-2.2,2,9.68,9.68,0,0,0-1.09,3.22A24.77,24.77,0,0,0,891,370q0,2.47.21,5.49a55.77,55.77,0,0,1,0,7.66,24.58,24.58,0,0,1-1.33,6.48,16,16,0,0,1-3.17,5.28,20.67,20.67,0,0,1-14.49,6.19,16.44,16.44,0,0,1-7.69-2.32,24,24,0,0,1-6.46-5.81,46.92,46.92,0,0,1-5.17-8.27,54.39,54.39,0,0,1-3.62-9.34A30.32,30.32,0,0,1,848.07,366.8Z"/><path class="cls-1" d="M868.24,420.27a8.16,8.16,0,0,1,.06-6.15,6.83,6.83,0,0,1,4.16-3.95,6.56,6.56,0,0,1,5.73.47,8.76,8.76,0,0,1,3.93,4.89,8.46,8.46,0,0,1,0,6.24,7.17,7.17,0,0,1-9.93,3.51A8.8,8.8,0,0,1,868.24,420.27Z"/><path class="cls-1" d="M887.49,491.29,884.21,476l12.91-7.4-4.74-22.16L877.58,445l-3.26-15.21,67.16,9.33L945,455.78Zm19.72-28.22,19.51-11.18a28.51,28.51,0,0,1,5.38-2.24l-.08-.35a23.77,23.77,0,0,1-5.66.08l-22.57-2.25Z"/><path class="cls-1" d="M885.89,502.4a8.2,8.2,0,0,1,1.68-5.93,6.84,6.84,0,0,1,5-2.71,6.62,6.62,0,0,1,5.42,2,8.8,8.8,0,0,1,2.5,5.75,8.48,8.48,0,0,1-1.6,6,7.15,7.15,0,0,1-10.5.78A8.8,8.8,0,0,1,885.89,502.4Z"/><path class="cls-2" d="M241.38,311.19c-.38.86-.93,2.14-1.6,3.69-2.57,5.88-3.9,8.8-4.28,9.63s-24.18,3.8-24.9,4.17l-.45.23a5.68,5.68,0,0,0-2.38,2.4c-2.8,5.18-5.14,10.16-5.44,13-1.12,10.78,2.84,21.32,4,24.39,2.27,6,3.61,9,4.07,15,.31,4,.55,8.26-.52,11.56l-1.69,4.45L194.41,355l-20.34,67.3c-.39,1.29,1,2.38,1.08,3.8v0a24.21,24.21,0,0,0,4.06,11.55l30.28,44.16q-7.71-6.51-15.83-13.06-8.91-7.18-17.57-13.81a287,287,0,0,0,14.07,26.9,270.84,270.84,0,0,0,15,22.59c-5.43-4.42-10.36-9.55-16.2-15.12-9.31-8.89-18.18-17.65-25.19-26.09-3.9,15.59-6.27,35.18-5.79,58.29.11,5,1.13,9.69,1.52,14.32l3.21,4.73,43.6,45-44.77-32.31L177,573.69l-16.62-12.93A213.24,213.24,0,0,0,163,582.22c1.83,10.23,2.73,15.52,5.85,21,1.88,3.26,3.65,5.21,10.8,11.79C192,626.34,196.86,629.86,204.25,637c2.93,2.85,7.42,7.4,12.69,13.57a188.82,188.82,0,0,1-38.56-23.94c-5.09-4.06-9.79-8.19-14.1-12.3,2.2,13.51,4.81,24.46,6.89,32.26,2.27,8.46,4.94,16.68,10.2,32.76,3.22,9.83,6,18,7.92,23.74,9.52,3,19.53,6.58,30,10.74,9.77,3.9,19,8,27.77,12.14a59.14,59.14,0,0,0-15.58-1.62c-7.23.23-8.26,1.66-15.07,1.43a36.54,36.54,0,0,1-17.64-4.41,43.22,43.22,0,0,1-8.23-6c10.84,14.24,16.41,26.55,19.5,35.41.85,2.43,2.84,7.52,5.63,14.72,4.19,10.79,5.78,16.34,11.35,20.06,3.45,2.3,7.73,4.09,16.07,4.67,12.26.85,24.54,2.36,36.8,3.36,3.79.3,7.93,1.11,14.86,1.81-10.22,2.06-17.51,3.06-24.39,3.92-14.33,1.8-21.82,1.83-23.87,1.82-6,0-11-.37-14.62-.73A64.45,64.45,0,0,1,244.19,812c3.36,4.06,5.14,7.15,10.67,16,6.56,10.46,9.83,15.69,10.85,17,10,12.88,22.4,17,28.93,19.25,9.92,3.36,16.36,3.39,19.11,3.21a49.75,49.75,0,0,0,15.52-3.59,97.23,97.23,0,0,0-10,7.9,105.48,105.48,0,0,0-9.65,9.92l46.45-6.56c-6.3,2.66-13.14,5.22-20.52,7.53a218.1,218.1,0,0,1-22.41,5.76c4.74,1.7,11.92,4.4,20.66,8.09,11.85,5,15.06,7,20.66,8.09,7.91,1.51,13.64-1.34,25.1-4.11A176.42,176.42,0,0,0,422,884.16c-7.51,4.78-15.34,11.54-23.56,18.46-4.51,3.81-8.72,7.65-12.62,11.46A61.65,61.65,0,0,1,405,907.82a81.18,81.18,0,0,1,16-.54c7.07.28,7.62,1,12.26,1.12,4.85.18,15.92.59,26.35-6.4,4.62-3.1,7.44-6.6,13.07-13.62s4.93-6.24,11-14.82A320,320,0,0,1,449,864a330.78,330.78,0,0,1-54-24c-10.3-5.71-44-25.11-80-61-11-11-30-30.19-49-60a345.48,345.48,0,0,1-39-87,359,359,0,0,1-14-83,364.05,364.05,0,0,1,8-96c17.31-77.34,59.1-132.08,84-160l22-22c-4.88,1.12-9.89,2.44-15,4A228.56,228.56,0,0,0,241.38,311.19Z"/><path class="cls-3" d="M304.53,352c.81,7.08,2.41,12.07,4.44,26.41.34,2.44.6,4.45.77,5.81v5.44a2.22,2.22,0,0,1-.61,1.53q-12.21,12.69-24.39,25.41-11.48,12-22.92,24a130.83,130.83,0,0,0,36.46-27.09A193.53,193.53,0,0,0,279.53,476a190.63,190.63,0,0,0-1,34.38c-4.76,2.9-8.65,5.43-11.46,7.29-9.78,6.47-11.95,8.58-13.55,10.42a35.51,35.51,0,0,0-6.25,10.42c5.36-2.49,10.93-5.25,16.67-8.34,5.15-2.76,10-5.56,14.59-8.33a216.17,216.17,0,0,0,16.67,107.32,21.52,21.52,0,0,0-9.38,6.25,21.8,21.8,0,0,0-5.21,12.5l1,33.34,4.17-27.09a33.61,33.61,0,0,1,15.63-21.88,118.69,118.69,0,0,0,28.13,62.52A52.5,52.5,0,0,0,316,747.89a46.52,46.52,0,0,1,14.58-33.34V753.1L338,732.55c4,7.45,13.35,14.89,30.09,27.43,12.56,9.4,29,13,36.3,14.58-2.08,11.46-1.92,9.49-1,17.92.24,2.31.55,4.52.91,6.62a30.23,30.23,0,0,0,8.47,16.31c-.48-5-.84-10.18-1-15.63-.28-7.36-.24-14.32,0-20.84A48.79,48.79,0,0,0,418,789.36c2.9,3.71,6.9,11.43,9.33,13.33a41.07,41.07,0,0,1-2.08-19.79,71.86,71.86,0,0,0,16.67,9.38,59.34,59.34,0,0,0,15.63,4.16,56.55,56.55,0,0,0,13.54,0,36.66,36.66,0,0,0-1,27.09,70.61,70.61,0,0,1,8.33-24,41.91,41.91,0,0,0,5.21,16.67,40.72,40.72,0,0,0,6.26,8.33l-2.09-25c4,9.18,15.12,54.15,39.59,66.76L520,866c-21.31-2.37-51.19-8.89-84.56-22.67a297.53,297.53,0,0,1-79-47.34c-32.42-27-57.86-56-72.93-79.19C269.54,695.3,254,667,241.81,623c-9.52-34.39-13.29-60.79-13.08-83.44.27-30.55-1.35-48.71,9.88-92.77C249,406,258,390.39,264.7,376.51,277,351,302,314,317.83,298.83A78.07,78.07,0,0,0,305,331,87,87,0,0,0,304.53,352Z"/><path class="cls-4" d="M315,291a365.85,365.85,0,0,0-48.93,69.15,359,359,0,0,0-31.44,78.5l-.71,2.55-.64,2.57L232,448.9c-.85,3.43-1.56,6.88-2.35,10.32-1.4,6.92-2.72,13.85-3.72,20.83s-1.88,14-2.47,21-1,14.06-1.07,21.11,0,14.1.3,21.14l.3,5.27c.09,1.76.22,3.52.37,5.28l.43,5.26.55,5.26A343,343,0,0,0,231.41,606,347.8,347.8,0,0,0,369.19,812a340.82,340.82,0,0,0,74.16,39.77,347.54,347.54,0,0,0,81.59,20.68,344.9,344.9,0,0,0,166-19.27A364.85,364.85,0,0,0,729.56,836a353.09,353.09,0,0,0,69.7-47.43,346.57,346.57,0,0,0,56.16-63,361.54,361.54,0,0,0,21.91-36.19c26.39-49.9,41-106.2,41.17-162.89a346,346,0,0,1-2,42.44c-.19,1.76-.4,3.52-.64,5.28l-.79,5.26c-.54,3.5-1,7-1.61,10.51-1.4,7-2.59,14-4.38,20.82L907.78,616c-.21.86-.4,1.73-.63,2.58l-.73,2.56-2.92,10.24c-2.19,6.75-4.3,13.53-6.86,20.16a363.2,363.2,0,0,1-17.14,39,354.12,354.12,0,0,1-21.76,36.65,350.72,350.72,0,0,1-56.16,64,357.5,357.5,0,0,1-70.08,48.52,366.87,366.87,0,0,1-39,17.52,350.07,350.07,0,0,1-251-.85,346.32,346.32,0,0,1-75.19-40.44,347,347,0,0,1-88.74-91.71,362.83,362.83,0,0,1-21.37-37,346.66,346.66,0,0,1-16.76-39.3,361.9,361.9,0,0,1-11.81-41,349.19,349.19,0,0,1-6.81-42.14l-.51-5.31-.39-5.32c-.14-1.78-.25-3.55-.33-5.33l-.26-5.33q-.4-10.66-.13-21.35t1.25-21.3q1-10.64,2.66-21.17A345.94,345.94,0,0,1,232.28,438,358.92,358.92,0,0,1,315,291Z"/><path class="cls-5" d="M375.88,240.1,364.37,249c-6.84,4.5-12.5,8.57-16.84,11.82a163.07,163.07,0,0,0-14.47,12.49,25.74,25.74,0,0,0-6.09,7.85,23.86,23.86,0,0,0-2.21,7.69,46,46,0,0,0,22-11.15,10.07,10.07,0,0,0,2.15-2.78,109.59,109.59,0,0,1,16.69-23.63Z"/><path class="cls-6" d="M577.86,689.44,613.93,635l-8.84-25-16.67-19.87,10.46.18c.33-.18,35,37.38,34.88,37.57-1.43,2.73-3.64,5.68-16.15,21.87-7.24,9.37-15.22,18-19.14,22.82"/><path class="cls-7" d="M555.18,349c40.82-4,75.89,6.38,91.59,18.83,38,30.19,47.12,72.65,54.19,93.3l-40.77,44.2c-.8-7.38-.92-37.9-18-68.14a84.85,84.85,0,0,0-28.71-29.87l-1.59-1a99.87,99.87,0,0,0-52.05-14.42H456l-.12.59V668.78H413V349.42h42.93Z"/><polygon class="cls-8" points="528.43 467.56 651.84 598.13 769 472.03 769 497.17 651.84 624.17 528.43 492.7 528.43 467.56"/><polygon class="cls-9" points="550.1 482.76 528.43 467.56 528.43 618.7 550.1 603.5 550.1 482.76"/><polygon class="cls-10" points="747.33 486.93 769 472.03 769 717.97 747.33 703.07 747.33 486.93"/><path class="cls-11" d="M680,691.31a98.18,98.18,0,0,1-25.23,17c-14.13,6.57-30.82,9.14-53.48,9.14H549.42c-1.27,0,98.38-12.68,119-82.44.69-2.33,1.31-4.7,1.79-7.15L705,590.25l10.46-.18,3,22.08Z"/><path class="cls-12" d="M561.52,642a103.74,103.74,0,0,0,20.22-30.2,100.87,100.87,0,0,0,6.61-21.67l34.88,37.56c-4.25,13.17-12.73,33.12-30.41,51-26.17,26.43-66.18,38.46-90.33,39.35C500.7,718,371,718,371,718V303s186.61,1.3,211.07,3.58c38.45,3.57,69.26,23.32,85,35.77,38,30.18,53.75,69.68,60.81,90.33L693,470.24c-.48-9.24-4-58.36-45.61-93-.61-.51-1.22-1-1.84-1.5C624,358.53,597,350.11,569.6,349.51H414V668.78h92.71a57.08,57.08,0,0,0,23.8-5.12A101.19,101.19,0,0,0,561.52,642Z"/><path class="cls-13" d="M769,467.88V718h42.93V415.69H769L651.84,540.89,528.43,415.69H485.5v203h42.93V467.88L651.84,598.13,769,472Z"/><path class="cls-14" d="M715.34,590.08l-34.88,37.56c-.48,2.45-1.1,4.83-1.79,7.16C658.1,704.56,545.94,718,547.21,718H611.6c22.65,0,39.34-3.3,53.48-9.88a98.11,98.11,0,0,0,25.22-17c3.05-2.82,37.92-36.11,31.65-79.39A75.55,75.55,0,0,0,715.34,590.08Z"/></g></svg>