<svg width="61" height="60" viewBox="0 0 61 60" fill="none" xmlns="http://www.w3.org/2000/svg">
<path opacity="0.85" fill-rule="evenodd" clip-rule="evenodd" d="M0.666748 30V37C0.666748 49.7025 10.9642 60 23.6667 60H30.6667H37.6667C50.3693 60 60.6667 49.7025 60.6667 37V30V23C60.6667 10.2975 50.3693 0 37.6667 0H30.6667H23.6667C10.9642 0 0.666748 10.2975 0.666748 23V30Z" fill="#DB7E5B"/>
<path d="M16 26.6667V23.3333C16 22.4493 16.3512 21.6014 16.9763 20.9763C17.6014 20.3512 18.4493 20 19.3333 20H22.6667M16 26.6667C18.2217 26.6667 22.6667 25.3333 22.6667 20M16 26.6667V33.3333M22.6667 20H39.3333M16 33.3333V36.6667C16 37.5507 16.3512 38.3986 16.9763 39.0237C17.6014 39.6488 18.4493 40 19.3333 40H22.6667M16 33.3333C18.2217 33.3333 22.6667 34.6667 22.6667 40M46 26.6667V23.3333C46 22.4493 45.6488 21.6014 45.0237 20.9763C44.3986 20.3512 43.5507 20 42.6667 20H39.3333M46 26.6667C43.7783 26.6667 39.3333 25.3333 39.3333 20M46 26.6667V33.3333M22.6667 40H29.3333" stroke="white" stroke-width="2" stroke-linecap="round" stroke-linejoin="round"/>
<path d="M31.0001 33.3332C32.841 33.3332 34.3334 31.8408 34.3334 29.9998C34.3334 28.1589 32.841 26.6665 31.0001 26.6665C29.1591 26.6665 27.6667 28.1589 27.6667 29.9998C27.6667 31.8408 29.1591 33.3332 31.0001 33.3332Z" stroke="white" stroke-width="2" stroke-linecap="round" stroke-linejoin="round"/>
<path d="M36 40H46" stroke="white" stroke-opacity="0.69" stroke-width="2" stroke-linecap="round" stroke-linejoin="round"/>
</svg>
