<svg width="60" height="60" viewBox="0 0 60 60" fill="none" xmlns="http://www.w3.org/2000/svg">
<path opacity="0.84" fill-rule="evenodd" clip-rule="evenodd" d="M0 30V37C0 49.7025 10.2975 60 23 60H30H37C49.7025 60 60 49.7025 60 37V30V23C60 10.2975 49.7025 0 37 0H30H23C10.2975 0 0 10.2975 0 23V30Z" fill="#FEC53D"/>
<path d="M15 24.6667V21.3333C15 20.4493 15.3512 19.6014 15.9763 18.9763C16.6014 18.3512 17.4493 18 18.3333 18H21.6667M15 24.6667C17.2217 24.6667 21.6667 23.3333 21.6667 18M15 24.6667V31.3333M21.6667 18H38.3333M15 31.3333V34.6667C15 35.5507 15.3512 36.3986 15.9763 37.0237C16.6014 37.6488 17.4493 38 18.3333 38H21.6667M15 31.3333C17.2217 31.3333 21.6667 32.6667 21.6667 38M45 24.6667V21.3333C45 20.4493 44.6488 19.6014 44.0237 18.9763C43.3986 18.3512 42.5507 18 41.6667 18H38.3333M45 24.6667C42.7783 24.6667 38.3333 23.3333 38.3333 18M45 24.6667V28M21.6667 38H28.3333" stroke="white" stroke-width="2" stroke-linecap="round" stroke-linejoin="round"/>
<path d="M30.0001 31.3332C31.841 31.3332 33.3334 29.8408 33.3334 27.9998C33.3334 26.1589 31.841 24.6665 30.0001 24.6665C28.1591 24.6665 26.6667 26.1589 26.6667 27.9998C26.6667 29.8408 28.1591 31.3332 30.0001 31.3332Z" stroke="white" stroke-width="2" stroke-linecap="round" stroke-linejoin="round"/>
<path d="M40 33V38M40 38V43M40 38H35M40 38H45" stroke="white" stroke-opacity="0.75" stroke-width="2" stroke-linecap="round" stroke-linejoin="round"/>
</svg>
